PathFileType	4	(X/Y/Z)	T1_P2_NoVision_NoMovement_2_0-733.trc
DataRate	CameraRate	NumFrames	NumMarkers	Units	OrigDataRate	OrigDataStartFrame	OrigNumFrames
60	60	4	27	m	60	641	733
Frame#	Time	RHip			RKnee			RAnkle			RBigToe			RSmallToe			RHeel			LHip			LKnee			LAnkle			LBigToe			LSmallToe			LHeel			Neck			Head			Nose			RShoulder			RElbow			RWrist			RThumb			RIndex			RPinky			LShoulder			LElbow			LWrist			LThumb			LIndex			LPinky		
		X1	Y1	Z1	X2	Y2	Z2	X3	Y3	Z3	X4	Y4	Z4	X5	Y5	Z5	X6	Y6	Z6	X7	Y7	Z7	X8	Y8	Z8	X9	Y9	Z9	X10	Y10	Z10	X11	Y11	Z11	X12	Y12	Z12	X13	Y13	Z13	X14	Y14	Z14	X15	Y15	Z15	X16	Y16	Z16	X17	Y17	Z17	X18	Y18	Z18	X19	Y19	Z19	X20	Y20	Z20	X21	Y21	Z21	X22	Y22	Z22	X23	Y23	Z23	X24	Y24	Z24	X25	Y25	Z25	X26	Y26	Z26	X27	Y27	Z27
642	10.7	474.1385007777261	3607.0221463287867	521.0508574577501	868.167917686297	3666.329925516721	544.6039132038112	1259.4830274118951	3747.967886968964	618.14207744565	1310.4539528406676	3594.7198985187115	542.5767914872761	1316.6614896528301	3677.547186979985	520.7217427951047	1281.832507578194	3733.2401476009145	622.1286486054502	474.4558875933476	3489.690913028047	718.3168252342103	882.4665179213206	3555.9252974780825	742.0118086733876	1245.553390075569	3604.655455128007	723.4957391151331	1308.633176622069	3472.870016782858	665.2488184722574	1277.7906154525401	3455.5948036542122	715.8900963587886	1267.8128811672473	3604.5709811451825	699.1355879086252	-118.36152395719068	3521.9235847642544	622.2061779655638	-366.9324733882886	3470.415280271218	595.1042695095588	-234.04248539851417	3419.0190887016115	573.7560539654845	-23.989011396566454	3613.7729968214403	486.97751624970545	216.57889913600525	3605.867348960563	411.93898248353145	373.1449451218326	3438.300258319065	484.97895379200594	436.4797298452542	3383.3177241683693	558.3395778884259	455.04237134400546	3404.2573847432436	583.2889388626228	480.56684362669836	3385.933395056738	561.6054599982315	-23.062047551661045	3450.253903154953	746.671325718104	231.10790582736826	3355.5664660498323	743.2473176765803	381.03827798973305	3372.678199259084	596.6580181144934	439.7364083648315	3407.5928142979747	505.4121053055475	468.6951748449443	3432.5055475091117	518.1100299947994	492.858561989581	3393.529393226264	564.318620887881
643	10.716666666666667	474.1428200024075	3606.8702816689556	521.094548430505	867.8111321200536	3665.8042182529543	544.2808632793391	1256.677883715335	3753.8060315558073	621.1595987260005	1322.6939445062228	3611.515465214633	557.1946710597438	1309.8038754068878	3672.7981200561067	519.9462710454213	1281.7775601363944	3733.6649107072853	622.5712065387988	474.33449678361075	3489.407395296687	718.251847632998	885.3481843643921	3550.8491730467745	739.3944591302392	1239.0572193467108	3600.5149435037315	722.5255281370781	1316.242511930372	3493.7396943307185	671.1390289148161	1277.8576577103765	3455.919392767279	716.0233092182494	1267.597016952792	3604.3095787147627	698.9856000009073	-113.71314347818944	3525.5921257895266	623.7566513986848	-366.8722784810139	3470.408040682085	595.1305944354802	-233.85214861683863	3419.1189202380783	573.8305880298608	-23.934090655176767	3613.823551939149	486.8865467296051	216.85850191773133	3573.9089876768535	396.9316867144136	377.5044629398132	3439.8845551859145	485.8225696602833	431.7434857127877	3381.2265562172556	557.1251118135098	454.9811241809077	3404.204978855234	583.2730849050132	472.57093651773306	3366.893001009943	547.8077046621	-18.353554868832536	3453.810521989648	748.2531144975021	226.93767646309442	3354.271298517139	742.4037558917198	385.6473869957784	3375.711183637171	597.5621731220198	435.1898030639889	3406.642313195005	504.30783960407933	468.61828418021713	3433.005083392014	518.2004352516169	492.90386490592243	3393.061043551476	564.0998170891172
644	10.733333333333333	474.06688067314803	3606.866988692987	521.0651305604239	868.2128114954676	3666.452828232015	544.7194537306207	1259.377519083245	3747.2180908555006	617.9907307737159	1322.8158464195117	3611.5492364169254	557.1849783605968	1321.8795099017448	3677.865741665037	522.0928788347636	1274.3650105332597	3711.6652490229358	616.9070745685717	474.3371486322698	3489.399243205423	718.2726304855978	885.754688056589	3551.426004161937	739.5824389614603	1245.6120679117494	3604.3262271855624	723.4390324777668	1308.6393096686672	3472.732333783081	665.4011441476787	1277.814508051854	3455.7145452340815	716.0474637009598	1267.6634324002275	3604.13064084112	698.9926887218999	-118.32614868803003	3522.0218961468863	622.2194690269317	-366.8692884999669	3470.38243729232	595.1010765375919	-233.97137807106816	3418.998044143378	573.7338759423295	-23.606350595860143	3635.004906621691	491.6244721562424	213.885090480646	3591.165436680601	400.1184710259989	373.1531647435433	3438.079770218984	484.8992453006696	436.31416580516634	3383.073007888512	558.5124278606555	454.6909020881588	3399.5310158988527	586.9646644133745	476.8848906662285	3370.403182478105	549.0321099157368	-22.534790842940264	3457.746177684653	750.5325353223639	226.86033665098873	3354.561770433248	742.7008650489424	385.37265270580616	3372.199447764168	600.8987790710012	435.06979206912735	3407.3411789379384	503.98713617690026	468.80171293190176	3430.9227033983198	522.3049280919464	493.11304503953284	3392.793032694408	564.061536211543
645	10.75	474.0800572328979	3606.9627399401547	521.1250562589921	868.3428450040991	3666.8813891695268	544.9650140248926	1259.3231387744813	3747.3058094525677	617.939948207665	1310.2889802536952	3594.6223173798735	542.673430162058	1316.2342094489634	3676.3519545129257	520.8434058347223	1281.6536431019451	3732.6010698597	621.9769974712211	474.35545113248537	3489.6631916987963	718.3846484401574	882.5037431115867	3556.1127365126895	742.1917726124135	1245.4989615099448	3604.2836214264603	723.5456697074733	1307.8791048332703	3469.2591963743125	668.6130111056248	1270.7175297965607	3441.535310897757	703.1522113504814	1267.6905917668882	3602.4239687745135	703.9609121499664	-118.22898868046676	3522.0177875696236	622.2348924487973	-366.9458982352757	3470.4022802412223	595.1937836465979	-233.82531266475655	3419.0873548239815	573.7690730850068	-23.995133722176224	3613.6849216864657	486.86240007399203	209.57530280478974	3587.649144131683	399.0249861965742	377.54213125638233	3439.8653371117052	485.815596959303	431.3805136368679	3381.2600330028163	557.3532477946723	454.99830604590676	3404.2609214268664	583.478953382432	472.5517522600136	3366.586651721145	547.6377352853697	-18.33486816068094	3453.9299406069317	748.3987619289538	226.91827182375977	3354.6030486441755	742.6662957830523	380.6917203720465	3368.5092282591936	599.800982166162	435.08511948510807	3406.6906352569076	504.32802560990467	468.6295428809009	3431.454349651283	523.0094582832194	492.88981780610385	3393.1028702472645	564.2054310227118
